<?xml version="1.0" encoding="iso-8859-1"?>
<!-- Generator: Adobe Illustrator 21.0.0, SVG Export Plug-In . SVG Version: 6.00 Build 0)  -->
<svg xmlns="http://www.w3.org/2000/svg" xmlns:xlink="http://www.w3.org/1999/xlink" version="1.1" id="Capa_1" x="0px" y="0px" viewBox="0 0 512 512" style="enable-background:new 0 0 512 512;" xml:space="preserve" width="512px" height="512px">
<g>
	<g>
		<path d="M511.844,208.776c-1.068-22.717-9.485-43.586-24.052-60.277c2.604-3.078,5.418-6.955,8.128-11.786    c10.063-17.933,14.22-40.42,12.355-66.835l-29.968,2.116c2.363,33.467-7.588,50.275-13.42,57.12    c-31.467-18.979-71.603-16.317-109.745,7.916c-29.597,18.803-50.769,46.009-71.247,72.32    c-8.631,11.089-16.784,21.563-25.557,31.494c-33.403,37.814-75.883,55.916-133.683,56.968c-6.776,0.117-15.948-0.898-25.669-1.98    c-30-3.337-67.335-7.493-88.781,15.05c-19.348,20.339-8.59,50.732,10.655,71.829c29.553,32.401,69.742,42.591,108.371,50.253    c30.746,6.098,60.788,9.157,89.764,9.156c14.065,0,27.883-0.721,41.4-2.165c64.784-6.921,125.095-31.298,169.821-68.64    C469.843,338.231,514.996,275.814,511.844,208.776z M410.966,348.252c-40.214,33.575-94.821,55.534-153.76,61.83    c-38.345,4.094-79.436,1.88-122.128-6.587c-35.124-6.966-68.592-15.345-92.02-41.029c-8.303-9.103-16.774-24.896-11.084-30.877    c6.133-6.447,17.674-8.377,30.709-8.377c10.71,0,22.428,1.304,32.982,2.478c10.712,1.192,20.837,2.334,29.539,2.158    c65.903-1.199,116.816-23.152,155.653-67.115c9.391-10.631,18.215-21.968,26.749-32.932    c10.115-12.998,19.949-25.618,30.511-36.997l43.783,8.18l-3.038,61.443l63.273-17.795l19.135,43.314l0.883-0.391    C448.683,310.352,429.932,332.417,410.966,348.252z M477.388,248.094l-18.306-41.436l-48.154,13.542l2.272-45.931l-46.689-8.722    c1.555-1.085,3.134-2.139,4.741-3.159c11.585-7.357,51.933-29.321,84.768-2.902c15.704,12.636,24.872,30.642,25.814,50.701    C482.429,222.814,480.758,235.569,477.388,248.094z" fill="#FFFFFF"/>
	</g>
</g>
<g>
</g>
<g>
</g>
<g>
</g>
<g>
</g>
<g>
</g>
<g>
</g>
<g>
</g>
<g>
</g>
<g>
</g>
<g>
</g>
<g>
</g>
<g>
</g>
<g>
</g>
<g>
</g>
<g>
</g>
</svg>
