<?xml version="1.0" encoding="iso-8859-1"?>
<!-- Generator: Adobe Illustrator 19.1.0, SVG Export Plug-In . SVG Version: 6.00 Build 0)  -->
<svg xmlns="http://www.w3.org/2000/svg" xmlns:xlink="http://www.w3.org/1999/xlink" version="1.1" id="Capa_1" x="0px" y="0px" viewBox="0 0 63.081 63.081" style="enable-background:new 0 0 63.081 63.081;" xml:space="preserve" width="512px" height="512px">
<g>
	<g id="group-73svg">
		<path id="path-1_69_" d="M32.343,63.081c-0.238,0-0.491-0.009-0.758-0.028c-0.268,0.019-0.522,0.028-0.761,0.028    c-1.864,0-3.258-0.542-4.144-1.61c-0.173-0.209-0.313-0.423-0.428-0.639c-1.343,0.676-2.629,1.018-3.842,1.018    c-4.454,0-5.859-4.362-5.926-4.547c-0.058-0.163,0.125-0.334,0.125-0.507V23.481c0-2.594,1.976-5.357,2.648-6.141l7.807-8.84    C27.348,8.182,27.648,8,28.075,8h7.794c0.454,0,0.883,0.205,1.168,0.559l7.315,8.814c1.501,1.755,2.257,4.393,2.257,6.108v33.315    c0,0.132-0.231,0.264-0.265,0.392c-0.438,1.613-2.296,4.662-5.798,4.662l0,0c-1.135,0-2.41-0.327-3.703-0.971    c-0.101,0.194-0.248,0.389-0.397,0.577C35.604,62.534,34.205,63.081,32.343,63.081z M31.585,60.049    c0.041,0,0.082,0.001,0.122,0.004c1.193,0.099,2.046-0.072,2.342-0.436c0.25-0.307,0.15-0.832,0.149-0.836    c-0.125-0.603,0.128-1.238,0.643-1.576c0.517-0.337,1.183-0.34,1.686,0.016c1.504,1.065,3.07,1.629,4.126,1.629    c1.777,0,1.956-1.733,2.956-2.29V23.481c0-1.538-0.769-3.261-1.565-4.192L35.151,11h-6.406l-7.231,8.314    c-1.238,1.45-1.905,3.173-1.905,4.167v33.013c0,0.611,1.055,2.356,3.014,2.356c1.145,0,2.391-0.549,3.917-1.629    c0.5-0.354,1.11-0.229,1.623,0.099c0.515,0.33,0.751,0.68,0.638,1.68c0.001,0-0.013,0-0.013,0c0.001,0-0.07,0.373,0.219,0.708    c0.351,0.403,1.216,0.515,2.459,0.415C31.506,60.119,31.544,60.049,31.585,60.049z" fill="#FFFFFF"/>
		<path id="path-2_69_" d="M46.609,40.5c0,0.828-0.671,1.5-1.5,1.5h-27c-0.829,0-1.5-0.672-1.5-1.5v-11c0-0.828,0.671-1.5,1.5-1.5    h27c0.829,0,1.5,0.672,1.5,1.5V40.5z M19.609,39h24v-8h-24V39z" fill="#FFFFFF"/>
		<path id="path-3_69_" d="M39.609,9.5c0,0.828-0.671,1.5-1.5,1.5h-13c-0.829,0-1.5-0.672-1.5-1.5v-8c0-0.828,0.671-1.5,1.5-1.5h13    c0.829,0,1.5,0.672,1.5,1.5V9.5z M26.609,8h10V3h-10V8z" fill="#FFFFFF"/>
	</g>
</g>
<g>
</g>
<g>
</g>
<g>
</g>
<g>
</g>
<g>
</g>
<g>
</g>
<g>
</g>
<g>
</g>
<g>
</g>
<g>
</g>
<g>
</g>
<g>
</g>
<g>
</g>
<g>
</g>
<g>
</g>
</svg>
